<svg xmlns="http://www.w3.org/2000/svg" class="w-32 h-auto mx-auto fill-black dark:fill-white" viewBox="0 0 145 73"><defs><linearGradient id="a" x1="50%" x2="50%" y1="0%" y2="100%"><stop offset="0%" stop-color="#681CFF"></stop><stop offset="100%" stop-color="#FD3F83"></stop></linearGradient></defs><path fill="url(#a)" d="M127.702 48.666c-.862 0-1.668.18-2.418.542a6.117 6.117 0 0 0-1.96 1.378c-.556.585-1 1.266-1.334 2.045a6.252 6.252 0 0 0-.458 2.38c0 .667.125 1.308.375 1.92.25.584.583 1.099 1 1.544.445.446.96.793 1.543 1.043a4.3 4.3 0 0 0 1.876.418c.806 0 1.57-.18 2.294-.543a5.744 5.744 0 0 0 1.876-1.378 6.754 6.754 0 0 0 1.292-2.086c.334-.78.5-1.6.5-2.462 0-1.364-.43-2.505-1.292-3.423-.834-.919-1.932-1.378-3.294-1.378z"></path><path d="M83.879 45.162a24.37 24.37 0 0 1 1.208-2.42 32.641 32.641 0 0 1 1.585-2.589 13.508 13.508 0 0 1 2.044-2.296 10.03 10.03 0 0 1 2.543-1.67 7.068 7.068 0 0 1 2.96-.625h.375c.111 0 .235.013.374.041.335.056.626.209.876.46.278.25.418.584.418 1.002 0 .5-.237 1.099-.709 1.794-.472.668-1.334 1.39-2.585 2.17-.278.167-.764.488-1.459.96a58.267 58.267 0 0 1-2.377 1.586c-.917.585-1.904 1.197-2.96 1.837a42.5 42.5 0 0 1-3.002 1.712 31.78 31.78 0 0 1 .709-1.962m-28.143-2.42a31.9 31.9 0 0 1 1.584-2.589 13.508 13.508 0 0 1 2.044-2.296 10.015 10.015 0 0 1 2.543-1.67 7.07 7.07 0 0 1 2.96-.625h.375c.111 0 .236.013.375.041.334.056.625.209.876.46.278.25.417.584.417 1.002 0 .5-.236 1.099-.709 1.794-.472.668-1.334 1.39-2.585 2.17-.278.167-.764.488-1.46.96a57.04 57.04 0 0 1-2.376 1.586 149.65 149.65 0 0 1-2.96 1.837 42.723 42.723 0 0 1-2.781 1.592 1.628 1.628 0 0 0-.127-.158c.16-.48.357-1.027.615-1.684.333-.78.736-1.587 1.21-2.42m88.013-27.215c-.333-.946-.778-1.726-1.334-2.337a5.056 5.056 0 0 0-1.876-1.378 5.433 5.433 0 0 0-2.21-.46c-1.667 0-3.419.293-5.253.877-1.807.585-3.67 1.628-5.587 3.13-1.917 1.503-3.877 3.549-5.879 6.137-1.973 2.587-3.946 5.87-5.92 9.85h-4.92c-1.334 0-2.349.32-3.044.96-.694.612-1.042 1.252-1.042 1.92 0 .64.278 1.197.834 1.67.556.473 1.598.709 3.127.709h2.21l-4.609 9.778c-.28.147-.687.378-1.229.699a66.26 66.26 0 0 1-2.751 1.586 99.272 99.272 0 0 1-3.669 1.961 64.39 64.39 0 0 1-4.21 1.879 34.614 34.614 0 0 1-4.337 1.46c-1.445.362-2.807.544-4.086.544-1.195 0-2.154-.223-2.878-.668-.721-.473-1.152-1.114-1.291-1.92 3.78-1.392 6.92-2.769 9.422-4.132 2.53-1.392 4.545-2.742 6.046-4.05 1.5-1.335 2.557-2.643 3.168-3.923.612-1.28.918-2.504.918-3.673 0-1.976-.57-3.52-1.71-4.633-1.14-1.113-2.862-1.67-5.17-1.67-2.196 0-4.266.32-6.213.96a22.73 22.73 0 0 0-5.294 2.546 24.15 24.15 0 0 0-4.377 3.674 26.403 26.403 0 0 0-3.253 4.215c-.89 1.447-1.57 2.894-2.043 4.342-.387 1.16-.607 2.243-.677 3.255-1.01.564-2.127 1.162-3.367 1.794a64.016 64.016 0 0 1-4.212 1.879 34.557 34.557 0 0 1-4.335 1.46c-1.445.362-2.807.544-4.086.544-1.196 0-2.154-.223-2.877-.668-.722-.473-1.153-1.114-1.292-1.92 3.78-1.392 6.921-2.769 9.422-4.132 2.53-1.392 4.545-2.742 6.046-4.05 1.5-1.335 2.557-2.643 3.168-3.923.612-1.28.918-2.504.918-3.673 0-1.976-.57-3.52-1.71-4.633-1.14-1.113-2.862-1.67-5.17-1.67-2.196 0-4.266.32-6.212.96a22.743 22.743 0 0 0-5.296 2.546 24.201 24.201 0 0 0-4.376 3.674c-1.28 1.363-2.364 2.769-3.252 4.215-.89 1.447-1.571 2.894-2.044 4.342-.473 1.418-.708 2.726-.708 3.922 0 .74.057 1.464.163 2.173-.816.502-1.735.976-2.782 1.417-1.585.668-3.391 1.002-5.42 1.002h-.584c-.195 0-.404-.014-.625-.042-1.113-.083-2.169-.64-3.17-1.67-1-1.03-1.918-2.267-2.752-3.714a33.267 33.267 0 0 1-2.084-4.633c-.556-1.642-.96-3.117-1.21-4.425 1.78-.306 3.614-.807 5.504-1.502a38.825 38.825 0 0 0 5.588-2.546 35.3 35.3 0 0 0 5.085-3.424 26.423 26.423 0 0 0 4.212-4.256 20.64 20.64 0 0 0 2.835-4.968 14.72 14.72 0 0 0 1.084-5.593c0-2.893-.598-5.425-1.792-7.596a15.541 15.541 0 0 0-4.754-5.384c-2.001-1.448-4.309-2.533-6.921-3.256C35.022.362 32.312 0 29.477 0c-2.89 0-5.628.306-8.213.918-2.586.584-4.976 1.378-7.172 2.379-2.168.974-4.128 2.115-5.878 3.423C6.462 8 4.975 9.336 3.752 10.727 2.557 12.118 1.626 13.509.959 14.9.32 16.292 0 17.586 0 18.783c0 1.28.348 2.281 1.042 3.005.695.695 1.737 1.043 3.127 1.043 1.028 0 1.89-.236 2.585-.71a7.8 7.8 0 0 0 1.876-1.835 18.938 18.938 0 0 0 1.668-2.589 58.893 58.893 0 0 1 1.751-3.005 22.966 22.966 0 0 1 2.335-3.005c.917-.974 2.03-1.836 3.335-2.588 1.335-.752 2.905-1.364 4.712-1.837 1.834-.473 4.017-.71 6.546-.71 2.252 0 4.183.265 5.795.794 1.64.529 2.974 1.238 4.003 2.129 1.056.89 1.82 1.933 2.293 3.13.5 1.196.75 2.462.75 3.798 0 1.865-.472 3.784-1.417 5.76-.918 1.976-2.183 3.77-3.794 5.385-1.613 1.613-3.503 2.95-5.67 4.006a15.571 15.571 0 0 1-6.839 1.545h-.584c-.166 0-.332-.014-.5-.042.723-1.53 1.418-3.019 2.085-4.466.667-1.474 1.25-2.825 1.751-4.049.5-1.224.904-2.309 1.209-3.255.307-.947.46-1.684.46-2.212s-.084-.96-.252-1.294c-.166-.362-.36-.626-.583-.794a1.598 1.598 0 0 0-.75-.375 2.525 2.525 0 0 0-.71-.125c-.722 0-1.542.417-2.46 1.252-.888.807-1.847 1.892-2.876 3.256-1.001 1.363-2.043 2.936-3.127 4.716a191.712 191.712 0 0 0-3.169 5.468L2.293 53.718a8.456 8.456 0 0 0-.709 1.879 8.077 8.077 0 0 0-.25 1.961c0 .446.056.918.167 1.42.14.5.361.96.667 1.377.305.417.737.765 1.293 1.043.555.279 1.278.418 2.168.418 1.084 0 2.084-.39 3.001-1.169.917-.78 1.78-1.795 2.585-3.047a29.512 29.512 0 0 0 2.21-4.3 147.797 147.797 0 0 0 1.917-4.883 207.203 207.203 0 0 0 1.711-4.758 50.832 50.832 0 0 1 1.541-4.049 78.42 78.42 0 0 0 3.045 8.265c1.14 2.587 2.403 4.855 3.794 6.803 1.39 1.948 2.933 3.492 4.627 4.633 1.696 1.141 3.545 1.712 5.545 1.712 2.446 0 5.032-.613 7.756-1.837 1.318-.6 2.65-1.37 3.994-2.303.196.291.404.572.627.842a10.308 10.308 0 0 0 3.294 2.588c1.305.64 2.792.96 4.46.96 1.946 0 3.92-.264 5.92-.793 2.002-.5 3.92-1.141 5.755-1.92a51.222 51.222 0 0 0 5.252-2.546 80.767 80.767 0 0 0 2.779-1.647c.463 1.253 1.087 2.377 1.89 3.358a10.326 10.326 0 0 0 3.295 2.588c1.306.64 2.793.96 4.46.96 1.947 0 3.92-.264 5.922-.793 2-.5 3.92-1.141 5.753-1.92a51.153 51.153 0 0 0 5.253-2.546c.832-.472 1.611-.93 2.339-1.373l-6.216 13.185c-.307.64-.542 1.197-.709 1.67-.167.5-.25.932-.25 1.294 0 .723.264 1.252.792 1.586.528.334 1.126.5 1.793.5.473 0 .987-.11 1.542-.333a6.16 6.16 0 0 0 1.626-.877 7.73 7.73 0 0 0 1.46-1.419 8.156 8.156 0 0 0 1.125-1.753c.445-.89 1.03-2.1 1.752-3.631.722-1.503 1.529-3.186 2.418-5.05.89-1.893 1.82-3.882 2.794-5.97l2.96-6.26c1-2.06 1.945-4.021 2.835-5.886a290.76 290.76 0 0 1 2.46-4.966h7.255c1.222-.029 2.473-.056 3.751-.084 1.307-.028 2.683-.07 4.128-.125.751-.056 1.362-.167 1.835-.334.472-.195.834-.417 1.083-.668.279-.279.473-.57.585-.877.111-.305.166-.612.166-.918 0-.612-.166-1.071-.5-1.377-.306-.334-.75-.571-1.334-.71-.556-.139-1.209-.222-1.96-.25a65.867 65.867 0 0 0-2.418-.042h-9.714a27.103 27.103 0 0 1 2.668-4.884c1.084-1.613 2.21-3.047 3.377-4.299 1.195-1.251 2.362-2.253 3.502-3.005 1.167-.751 2.182-1.127 3.044-1.127.723 0 1.292.25 1.71.752.444.5.667 1.335.667 2.504 0 .306-.029.612-.084.918-.028.306-.041.64-.041 1.001 0 .558.235.975.708 1.253.472.25.986.375 1.543.375.222 0 .486-.027.792-.083.306-.083.611-.209.917-.376.306-.167.584-.375.834-.626.25-.278.417-.612.5-1.002.334-1.446.5-2.768.5-3.964 0-1.253-.166-2.338-.5-3.256"></path></svg>